<svg xmlns="http://www.w3.org/2000/svg" width="35.52" height="32.544" viewBox="0 0 6380 5852" shape-rendering="geometricPrecision" image-rendering="optimizeQuality" fill-rule="evenodd" xmlns:v="https://vecta.io/nano"><path d="M2770 4042V2703c0-560 841-560 841 0v1339c0 559-841 559-841 0z" fill="#ffc300"/><path d="M4920 3444l561 972v2c37 63 55 130 55 196 0 67-18 134-55 197v1c-36 64-85 113-143 146v1c-55 31-122 48-198 48v2H4016c-539 0-539 841 0 841h1124v2c222 0 433-58 618-165h2c182-105 337-259 450-454h0c114-196 170-407 170-619 0-211-56-422-170-618h0l-562-973c-269-466-998-46-728 421z" fill="#ef2323"/><path d="M4094 2013c269 467 997 46 728-420l-561-973v-1c-112-193-266-347-451-454v-1C3625 57 3414 0 3190 0c-223 0-434 57-620 164v1c-184 107-339 261-450 454v1l-562 973c-269 466 459 887 729 420l561-973 1 1c38-66 86-116 142-148h1c55-32 123-49 198-49 76 0 143 17 198 49h2c55 32 104 82 142 148v-1l562 973z" fill="#009f4d"/><path d="M899 4416l562-972c269-467-459-887-729-421l-561 973h-1C57 4192 0 4403 0 4614c0 212 57 423 170 619 112 194 267 348 450 454h2c185 107 396 165 618 165v-2h1124c539 0 539-841 0-841H1240v-2c-76 0-143-17-198-48l1-1c-57-32-107-82-144-147-36-63-55-130-55-197 0-66 19-133 55-196v-2z" fill="#0060fa"/></svg>