<svg xmlns="http://www.w3.org/2000/svg" width="35.52" height="46.08" viewBox="0 0 26.64 34.593" xmlns:v="https://vecta.io/nano"><path d="M50.525 53.296v-72h-74.409v72z" fill="none" stroke="#000" stroke-width=".5"/><g fill-rule="evenodd"><path d="M1.544 19.34l7.813-9.31-6.243-5.238C-.215 8.816-.921 14.995 1.22 19.725z" fill="#ea4335"/><path d="M3.114 4.792l6.243 5.238.052-.063.021-.026L17.299.564C16.333.264 15.32.072 14.274 0h-1.836a13.26 13.26 0 0 0-9.323 4.791z" fill="#1a73e8"/><path d="M17.299.564L9.43 9.942c.942-1.115 2.351-1.824 3.926-1.824 2.837 0 5.136 2.3 5.136 5.136 0 1.254-.45 2.403-1.196 3.295l.004-.004 7.868-9.377C23.549 4.034 20.72 1.626 17.299.564z" fill="#4285f4"/><path d="M1.544 19.34l-.324.386c.95 2.098 2.579 4.619 5.338 7.431l.877 1.143 1.977-2.356 7.812-9.312c-.942 1.077-2.326 1.758-3.869 1.758-2.837 0-5.136-2.299-5.136-5.136a5.12 5.12 0 0 1 1.137-3.224z" fill="#fbbc04"/><path d="M9.413 25.943l-1.977 2.356 3.34 4.86a2.96 2.96 0 0 0 2.579 1.434 2.96 2.96 0 0 0 2.579-1.434c2.007-3.231 4.217-6.003 4.217-6.003 4.339-4.423 6.488-7.852 6.488-13.903 0-2.193-.532-4.263-1.473-6.086l-4.194 4.998-3.635 4.332-.113.134z" fill="#34a853"/></g></svg>